<svg xmlns="http://www.w3.org/2000/svg" viewBox="0 0 1800 1200" role="img" aria-label="Fond hero kayak et ocean">
  <defs>
    <linearGradient id="sky" x1="0" y1="0" x2="0" y2="1">
      <stop offset="0%" stop-color="#0A1628"/>
      <stop offset="55%" stop-color="#1E90FF"/>
      <stop offset="100%" stop-color="#F0F8FF"/>
    </linearGradient>
    <linearGradient id="sun" x1="0" y1="0" x2="1" y2="1">
      <stop offset="0%" stop-color="#FFD166"/>
      <stop offset="100%" stop-color="#FFA500"/>
    </linearGradient>
  </defs>
  <rect width="1800" height="1200" fill="url(#sky)"/>
  <circle cx="1350" cy="260" r="120" fill="url(#sun)" opacity="0.95"/>
  <path d="M0 760 C 280 700, 520 820, 860 780 C 1120 750, 1470 860, 1800 790 L 1800 1200 L 0 1200 Z" fill="#1E90FF" opacity="0.6"/>
  <path d="M0 860 C 260 790, 580 930, 860 900 C 1170 860, 1470 980, 1800 910 L 1800 1200 L 0 1200 Z" fill="#0A1628" opacity="0.45"/>
  <g transform="translate(760 760)">
    <ellipse cx="120" cy="96" rx="170" ry="28" fill="#0A1628" opacity="0.4"/>
    <path d="M0 90 Q120 20 250 90 Q120 130 0 90 Z" fill="#FFA500"/>
    <rect x="112" y="-120" width="16" height="180" rx="8" fill="#F0F8FF"/>
    <path d="M120 -120 Q220 -80 150 10 Q125 20 120 8 Z" fill="#FFFFFF"/>
    <path d="M120 -25 Q30 5 88 95 Q116 102 120 84 Z" fill="#FFFFFF"/>
  </g>
  <text x="120" y="170" fill="#FFFFFF" font-size="84" font-family="Arial, sans-serif" font-weight="700">K-RE KAYAK</text>
  <text x="120" y="236" fill="#F0F8FF" font-size="34" font-family="Arial, sans-serif">Ile de Re - aventure aquatique</text>
</svg>
